<?xml version="1.0" encoding="UTF-8"?>
<svg width="18px" height="21px" viewBox="0 0 18 21" version="1.1" xmlns="http://www.w3.org/2000/svg" xmlns:xlink="http://www.w3.org/1999/xlink">
    <!-- Generator: Sketch 54.1 (76490) - https://sketchapp.com -->
    <title>Light-M</title>
    <desc>Created with Sketch.</desc>
    <g id="Page-1" stroke="none" stroke-width="1" fill="none" fill-rule="evenodd">
        <g id="Blaaa" transform="translate(-1856.000000, -64.000000)" fill="#FFFFFF" fill-rule="nonzero">
            <g id="Nav">
                <g id="Header">
                    <g id="LOGO-+-MENU" transform="translate(474.000000, 56.000000)">
                        <g id="Light-M" transform="translate(1382.000000, 8.000000)">
                            <path d="M0.788307241,19.3753569 C0.322480431,19.3753569 0,19.7123203 0,20.1936946 C0,20.6630365 0.322480431,21 0.788307241,21 L17.1997309,21 C17.6774951,21 18,20.6630365 18,20.1936946 C18,19.7123203 17.6774951,19.3753569 17.1997309,19.3753569 L9.20902642,19.3753569 C9.36428571,19.3272194 9.49567025,19.2429787 9.61511742,19.1226346 L17.6058219,11.0836705 C17.7969423,10.8790805 17.9044276,10.6744905 17.9044276,10.4217661 C17.9044276,9.96447628 17.5699853,9.62751034 17.1161204,9.62751034 C16.8891634,9.62751034 16.6622309,9.71175183 16.5069472,9.8681827 L12.9953523,13.394273 L9.74650196,16.8962739 L9.81817515,14.2968498 L9.81817515,0.806307842 C9.81817515,0.32491384 9.48373288,0 9.00596869,0 C8.5282045,0 8.19376223,0.32491384 8.19376223,0.806307842 L8.19376223,14.2968498 L8.26541096,16.9083063 L5.01658513,13.394273 L1.50496575,9.8681827 C1.34970646,9.71175183 1.12274951,9.62751034 0.895817025,9.62751034 C0.441927593,9.62751034 0.107485323,9.96447628 0.107485323,10.4217661 C0.107485323,10.6744905 0.214995108,10.8790805 0.406090998,11.0836705 L8.3967955,19.1226346 C8.51624266,19.2429787 8.6476272,19.3272194 8.79097358,19.3753569 L0.788307241,19.3753569 Z" id="Path"></path>
                        </g>
                    </g>
                </g>
            </g>
        </g>
    </g>
</svg>