<?xml version="1.0" encoding="UTF-8"?>
<svg width="60px" height="58px" viewBox="0 0 60 58" version="1.1" xmlns="http://www.w3.org/2000/svg" xmlns:xlink="http://www.w3.org/1999/xlink">
    <!-- Generator: Sketch 54.1 (76490) - https://sketchapp.com -->
    <title>25231</title>
    <desc>Created with Sketch.</desc>
    <g id="Page-1" stroke="none" stroke-width="1" fill="none" fill-rule="evenodd">
        <g id="Blaaa" transform="translate(-1173.000000, -5808.000000)" fill="#000000" fill-rule="nonzero">
            <g id="Group-5" transform="translate(0.000000, 5204.000000)">
                <g id="25231" transform="translate(1173.000000, 604.000000)">
                    <path d="M55.9757015,14.805494 C53.2930183,10.2508334 49.6541298,6.64490223 45.0580783,3.98688711 C40.4613427,1.32873642 35.4430778,0 29.9997264,0 C24.557059,0 19.5371523,1.32914313 14.9413745,3.98688711 C10.3449125,6.64476665 6.70616081,10.2508334 4.02347758,14.805494 C1.3412048,19.360019 0,24.3335956 0,29.7260882 C0,36.2036952 1.90721156,42.0285253 5.72259238,47.2020699 C9.53756276,52.3760212 14.4659397,55.9561937 20.5073128,57.9429943 C21.2105458,58.0723295 21.7311297,57.981361 22.0696119,57.6723935 C22.4082308,57.3630193 22.5773351,56.9755559 22.5773351,56.5116302 C22.5773351,56.4342189 22.5706311,55.737788 22.5576336,54.4215242 C22.5442257,53.1052603 22.5379322,51.9569696 22.5379322,50.9771943 L21.6394631,51.1312035 C21.0666156,51.2351869 20.3439548,51.2792476 19.4714808,51.266775 C18.5994172,51.2547092 17.6941073,51.1641474 16.7567826,50.9957676 C15.8190475,50.828879 14.9468471,50.4418224 14.1394973,49.835411 C13.332558,49.2289996 12.7597105,48.4352284 12.4210915,47.4553175 L12.0304825,46.5646126 C11.7701222,45.9716228 11.3602222,45.3128808 10.8002353,44.5908269 C10.2402485,43.8680952 9.67396807,43.3781397 9.10112052,43.1201471 L8.82762584,42.9261443 C8.64538726,42.7972158 8.47628299,42.6417153 8.31990259,42.4612696 C8.163659,42.2808239 8.04668153,42.1002426 7.96855974,41.9193902 C7.89030113,41.7384023 7.9551518,41.5899514 8.16379582,41.4734955 C8.37243984,41.3570396 8.74950404,41.3005063 9.29663023,41.3005063 L10.0775745,41.4161488 C10.5984321,41.5195898 11.2426975,41.8285573 12.0111915,42.3449492 C12.7792752,42.8609344 13.4106798,43.5317423 13.9055424,44.3571016 C14.5047954,45.4153729 15.2267721,46.2217523 16.0735248,46.7766465 C16.9195934,47.3315407 17.7726396,47.6085133 18.6318425,47.6085133 C19.4910454,47.6085133 20.233134,47.5439812 20.858382,47.415595 C21.4829459,47.2865309 22.0689278,47.0925281 22.616054,46.8346711 C22.8504193,45.1050497 23.488528,43.7763133 24.5298327,42.8475128 C23.0456554,42.6929613 21.7112914,42.460185 20.5260566,42.1506752 C19.3415058,41.8407588 18.1174153,41.3377884 16.8546059,40.6404086 C15.5911124,39.9439777 14.542967,39.079167 13.7098959,38.0474678 C12.876688,37.0152263 12.1928828,35.6600534 11.6594382,33.9831693 C11.12572,32.3056074 10.8587925,30.3704596 10.8587925,28.1771836 C10.8587925,25.0542938 11.8876469,22.396821 13.9449453,20.2032738 C12.9812152,17.8554464 13.0721977,15.223461 14.2181664,12.3075888 C14.9733893,12.0750837 16.0933631,12.2495642 17.5775403,12.8299459 C19.0619912,13.4105987 20.1488555,13.9080106 20.8392278,14.3204191 C21.5296001,14.7326921 22.0827462,15.0820599 22.4994869,15.3654043 C24.9218098,14.6947321 27.4215704,14.3593281 29.9994527,14.3593281 C32.5773351,14.3593281 35.0776429,14.6947321 37.5001026,15.3654043 L38.9844167,14.436875 C39.9994527,13.8173132 41.1980955,13.2495397 42.5774719,12.733419 C43.9576692,12.2175693 45.0130659,12.0754904 45.7425675,12.3079955 C46.9139839,15.2240033 47.0183744,17.8558531 46.0543706,20.2036806 C48.1115322,22.3972277 49.1407971,25.0553784 49.1407971,28.1775903 C49.1407971,30.3708663 48.8729118,32.3121148 48.3400145,34.0025561 C47.8064331,35.6932684 47.1167449,37.0470856 46.2706763,38.0668545 C45.42365,39.0864879 44.3688005,39.94452 43.1059912,40.6408153 C41.8429082,41.3376529 40.6184072,41.8406232 39.4338564,42.1505397 C38.2487584,42.4604561 36.9143944,42.693368 35.4302171,42.8481907 C36.7838722,44.008954 37.4608365,45.841203 37.4608365,48.3441243 L37.4608365,56.5105457 C37.4608365,56.9744714 37.6236472,57.3617992 37.9495424,57.671309 C38.275027,57.9802764 38.7890438,58.0712449 39.4922768,57.9417741 C45.5344707,55.9552447 50.4628477,52.3749366 54.2776812,47.2009853 C58.0921044,42.0274407 60,36.2026106 60,29.7250036 C59.9986318,24.3331889 58.656743,19.360019 55.9757015,14.805494 Z" id="Path"></path>
                </g>
            </g>
        </g>
    </g>
</svg>