<svg xmlns="http://www.w3.org/2000/svg" viewBox="0 0 60 58"><defs><style>.cls-1{fill:#fff;}</style></defs><title>Asset 1</title><g id="Layer_2" data-name="Layer 2"><g id="Layer_1-2" data-name="Layer 1"><g id="Page-1"><g id="Blaaa"><g id="Group-5"><path id="Path" class="cls-1" d="M56,14.81A30,30,0,0,0,30,0,30,30,0,0,0,4,14.81,28.86,28.86,0,0,0,0,29.73,28.74,28.74,0,0,0,5.72,47.2,29.33,29.33,0,0,0,20.51,57.94a1.75,1.75,0,0,0,1.56-.27,1.5,1.5,0,0,0,.51-1.16c0-.08,0-.77,0-2.09s0-2.46,0-3.44l-.9.15a11.25,11.25,0,0,1-2.17.14A18.56,18.56,0,0,1,16.76,51a6.22,6.22,0,0,1-2.62-1.16,4.92,4.92,0,0,1-1.72-2.38l-.39-.9a9.65,9.65,0,0,0-1.23-2,4.77,4.77,0,0,0-1.7-1.47l-.27-.19a3.19,3.19,0,0,1-.51-.47A2.06,2.06,0,0,1,8,41.92c-.08-.18,0-.33.19-.45A2.7,2.7,0,0,1,9.3,41.3l.78.12a5.74,5.74,0,0,1,1.93.92,6.34,6.34,0,0,1,1.9,2,6.83,6.83,0,0,0,2.16,2.42,4.68,4.68,0,0,0,2.56.83,12,12,0,0,0,2.23-.19,7.92,7.92,0,0,0,1.76-.59,6.24,6.24,0,0,1,1.91-4,27.53,27.53,0,0,1-4-.7,16,16,0,0,1-3.68-1.51,10.55,10.55,0,0,1-3.14-2.59A12.39,12.39,0,0,1,11.66,34a19.22,19.22,0,0,1-.8-5.8,11.27,11.27,0,0,1,3.08-8,10.31,10.31,0,0,1,.28-7.89,5.55,5.55,0,0,1,3.36.52,24,24,0,0,1,3.26,1.49c.69.41,1.24.76,1.66,1a28.35,28.35,0,0,1,15,0L39,14.44a21.61,21.61,0,0,1,3.6-1.71,5.2,5.2,0,0,1,3.16-.42,10.18,10.18,0,0,1,.31,7.89,11.25,11.25,0,0,1,3.09,8,19.45,19.45,0,0,1-.8,5.82,11.85,11.85,0,0,1-2.07,4.07,11,11,0,0,1-3.16,2.57,16,16,0,0,1-3.68,1.51,27.53,27.53,0,0,1-4,.7q2,1.74,2,5.49v8.17A1.53,1.53,0,0,0,38,57.67a1.7,1.7,0,0,0,1.54.27A29.39,29.39,0,0,0,54.28,47.2,28.74,28.74,0,0,0,60,29.73,28.86,28.86,0,0,0,56,14.81Z"/></g></g></g></g></g></svg>