<?xml version="1.0" encoding="utf-8"?>
<!-- Generator: Adobe Illustrator 23.0.2, SVG Export Plug-In . SVG Version: 6.00 Build 0)  -->
<svg version="1.1" id="Layer_1" xmlns="http://www.w3.org/2000/svg" xmlns:xlink="http://www.w3.org/1999/xlink" x="0px" y="0px"
	 viewBox="0 0 57 55" style="enable-background:new 0 0 57 55;" xml:space="preserve">
<style type="text/css">
	.st0{fill:#FFFFFF;}
</style>
<title>34227</title>
<desc>Created with Sketch.</desc>
<g id="Page-1">
	<g id="Blaaa" transform="translate(-1036.000000, -5808.000000)">
		<g id="Group-5" transform="translate(0.000000, 5204.000000)">
			<g transform="translate(1036.000000, 604.000000)">
				<path id="LinkedIn" class="st0" d="M57,33.7V55H44.8V35.1c0-5-1.8-8.4-6.2-8.4c-3.4,0-5.4,2.3-6.3,4.5c-0.3,0.8-0.4,1.9-0.4,3
					V55H19.7c0,0,0.2-33.6,0-37.1h12.2v5.3c0,0-0.1,0.1-0.1,0.1h0.1v-0.1c1.6-2.5,4.5-6.1,11-6.1C51,17,57,22.3,57,33.7z M6.9,0
					C2.7,0,0,2.8,0,6.4c0,3.6,2.7,6.4,6.8,6.4h0.1c4.3,0,6.9-2.9,6.9-6.4C13.7,2.8,11.1,0,6.9,0z M0.7,55h12.2V17.9H0.7V55z"/>
			</g>
		</g>
	</g>
</g>
</svg>
